<svg xmlns="http://www.w3.org/2000/svg" viewBox="0 0 2073.05 1448.05">
  <defs></defs>
  <g id="Layer_2" data-name="Layer 2">
    <g id="Paises">
      <g id="El_Salvador" data-name="El Salvador">
        <polygon
          class="cls-1"
          points="1970.05 1434.51 1964.05 1424.51 1970.05 1414.51 1972.05 1410.51 1972.05 1406.51 1973.05 1402.51 1975.05 1398.51 1968.05 1388.51 1962.05 1388.51 1960.05 1392.51 1957.05 1389.51 1955.05 1385.51 1952.05 1384.51 1946.05 1384.51 1943.05 1384.51 1940.05 1389.51 1938.05 1392.51 1934.05 1391.51 1928.05 1392.51 1922.05 1394.51 1918.05 1394.51 1920.05 1389.51 1915.05 1385.51 1909.05 1384.51 1906.05 1382.51 1903.05 1377.51 1898.05 1375.51 1895.05 1377.51 1892.05 1373.51 1889.05 1372.51 1886.05 1372.51 1883.05 1372.51 1882.05 1368.51 1877.05 1363.51 1873.05 1360.51 1869.05 1361.51 1866.05 1362.51 1862.05 1362.51 1858.05 1361.51 1855.05 1359.51 1853.05 1358.51 1849.05 1358.51 1848.05 1360.51 1846.05 1360.51 1844.05 1361.51 1842.05 1362.51 1840.05 1363.51 1840.05 1366.51 1840.05 1369.51 1842.05 1370.51 1842.05 1373.51 1840.05 1375.51 1838.05 1376.51 1836.05 1377.51 1833.05 1378.51 1831.05 1382.51 1829.05 1385.51 1829.05 1388.51 1826.05 1389.51 1823.05 1387.51 1821.05 1386.51 1814.05 1392.51 1808.05 1397.51 1804.05 1403.51 1804.05 1410.51 1813.05 1413.51 1818.05 1415.51 1822.05 1418.51 1825.05 1421.51 1827.05 1424.51 1834.05 1424.51 1838.05 1425.51 1841.05 1425.51 1846.05 1426.51 1851.05 1426.51 1857.05 1426.51 1862.05 1426.51 1865.05 1427.51 1869.05 1429.51 1874.05 1430.51 1877.05 1431.51 1880.05 1432.51 1882.05 1434.51 1885.05 1435.51 1888.05 1437.51 1891.05 1438.51 1892.05 1438.51 1894.05 1438.51 1898.05 1440.51 1901.05 1440.51 1902.05 1442.51 1905.05 1442.51 1908.05 1444.51 1912.05 1444.51 1915.05 1445.51 1919.05 1447.51 1923.05 1447.51 1920.05 1445.51 1916.05 1444.51 1916.05 1442.51 1914.05 1441.51 1912.05 1443.51 1908.05 1443.51 1907.05 1440.51 1910.05 1439.51 1913.05 1439.51 1915.05 1439.51 1917.05 1439.51 1918.05 1440.51 1920.05 1441.51 1922.05 1441.51 1924.05 1441.51 1925.05 1442.51 1927.05 1443.51 1930.05 1443.51 1931.05 1441.51 1934.05 1443.51 1933.05 1445.51 1934.05 1446.51 1936.05 1447.51 1939.05 1446.51 1943.05 1446.51 1946.05 1446.51 1949.05 1446.51 1952.05 1445.51 1955.05 1445.51 1959.05 1445.51 1962.05 1446.51 1963.05 1444.51 1965.05 1443.51 1966.05 1441.51 1968.05 1439.51 1970.05 1437.51 1971.05 1435.51 1970.05 1434.51"/></g>
      <g id="Guatemala">
        <path
          class="cls-1"
          d="M1802.05,1409.51l-8-2-5-2-8-2-8-3-26,2c-22,5-37-4-37-4-10,1-22-13-26-13a3.18,3.18,0,0,1-.94-.17c-4.67-1.44-15.06-11.83-15.06-11.83l-17-11,1-3,2-1v-5l1-3v-6l-2-3-1-3,2-2,1-2,1-3v-3l2-2,2-2v-2l-1-2h-2l-3-2-1-2-2-1-1-1-3-3,32-64,80-5h4l2-1,2-3-1-3-1-7,2-4,3-4,1-3-3-2-6-1-5-1-2-2-2-2-1-4v-2l-1-2-1-3-1-2-2-2-2-2-5-3-3-2-3-1-3-1-3-1-2-1-3-3-2-2-4-4-3-1-2-1-1-1-2-2-2-2-1-2v-1l-1-2h-1l-2,1-2,1v-2l-2-1-2-1c-1,0-1-3-1-3l31-1-2-40,128-8c5,7,6,140,6,140l-2,2,1,2h3l3-2,1-1,2-1h10l2,1h7l3,1,2,1-1,2-1,2-2,1-2,1h-3l-3,1-2,2-2,1-2,2-2,2v2l-2,2-2,1-2,2-3,1-2-1-2,1-1,3-2,1h-4l-3,1-2,2,1,2,3,1,2,2v2l3,1,2-3,2-2,2,1h4l4-2,3-2,3-3,1-3-1-3-1-3-1-3,3-2,2-2,1-2,3-1h3l3-1,2-1,1-2,1-2,2,2,2,1,1,2,2,4,1,1,1-3,2-3v-5l-1-1h3l2-1-1-1-4-2-2-2-1-2,3,1,3,1,3,2,5,3,5,2,5,4,3,2-2,3-2,1h-3l-2,1-1,2-1,2v2l-3,3-1,2-3,3-4,4-3,4-3,2-2,3-4,1-3,2-2,3-3,1-1,3-2,2-3,3-4,3-3,1-3,1-2,2v9l-2,2-1,2-1,2,1,2,2,1,1,2,2,2,2,2v7l-1,4-5,1-3,3-2,5-3,4-2-1h-4l-1,2h-2l-2,1-2,1-2,1v6l2,1v3l-2,2-2,1-2,1-3,1-2,4-2,3v3l-3,1-3-2-2-1-7,6-6,5-4,6v7Z"/></g>
      <g id="Mexico">
        <line class="cls-2" x1="562.05" y1="93.51" x2="568.04" y2="93.74"/>
        <line class="cls-3" x1="581.05" y1="94.25" x2="652.55" y2="97.02"/>
        <line class="cls-2" x1="659.05" y1="97.28" x2="665.05" y2="97.51"/>
        <path
          class="cls-4"
          d="M1647.55,1360l-2-2-3-3-6-4-5-3-6-4-4-6-5-7-7-6-5-5-4-4-6-2-7-7-6-4-7-5-5-5-5-3-6-5-5-5-7-5-7-5-10-7-1-4-1-5-9-2-7-3-4-2h-6l-4-2-5-4-4,3,2,4,9,2,7,2,8,3,5,4-9-2-6-3-12-3-9-1-8-2h-7v-3l4-2,3-4-1-5-5,4-5,3-3-2-2-6-6,1-3,4-5,3-1,6-6,1-4,5-7,4-3,4-4,5-6,2h-8l-5,4-6,2-4,4h-6l-4,2-7,4-5,4-9,3-4,2h-11l-8,1-6-3-6-1h-9l-4-4-6-1-2-4-6-2-6-5h-38l-5-3-6-4-7-3-4-3-6-3-4-3-5-1-5-1-3-2-7-1h-6l-1-3-2-4-3-3-4-4-3-5-4,1-4,2-4-2-9-4-8-2-9-2h-9l-12-2-9-1-4-2-5-4-3-4-5-1-8-4-8-4-7-2-8-3-6-3-5-2-4-1-8-3-5-4h-6l-5-1-8-6-5-3-4-3-6-4-7-4-7-2-1-6-3-2-5-1-3-2-3-5-4-5-3-6-5-2-4-4-5-1h-4l-5,1-3,4-6-3-5-4-5-2-6-1h-6l-7-3h-7l-4-4-10-3-8-3-7-2-11-3-8-3-7-4-1-3-1-4-1-4-4-4-4-4-1-4-7-7-6-5-6-5-8-4-8-2-6-5s-4-5-5-6-4-1-4-1l-4-2h-6l-8-4-2-5-5-3-3,2-5-2-4-4-4-7-3-6-3-3-5-5-7-6-4-7-2-4-5-6-3-5-3-7-1-4,2-4-5-4-4-8-3-7,7-1,7-1,6-1,8-3,4-6-1-6-7-3-10-3,3-3,3-5,3-6,5-3,6-3V884l2-9,1-5,1-5-2-5-2-4-6-2-5-7-2-5-4-7-3-7-4-7-1-10,1-5-2-9-2-8-5-11-5-6-6-7-4-5-7-6-5-7-6-6-6-4-5-8-4-3-1-6-7-7-5-6-3-5-6-5-1-6-3-5-3-6-4-5-7-5-5-4-5-3-7-6-3-4-5-5-4-3,2-3,2-5-4-3h-6l-6-2-5-5-8-4-2-12-2-7V592l-4-4-3-3-9-3-2-5h-3l-4,2-1-4-6-5-4-4-8-3-2-2V551l-5-1-5,5-7-2,4-3,3-6-4,1-8,1-5,1-5-4-5-4-5-3V517l2-7,3-5h3l2-3,1-5,2-5,2,5v6l5-4-1-6-4-5-2-3-3-5-2-3-3-6-4-4-2-4h-6l-5,1-7-1-4-1-2-5-5-5v-6l-2-5v-6l-3-3-5,1-4-1-7-3-4-4-5-3-3-4-3-4-2-4-2-2-3-2-1-4-1-3v-7l2-6v-5l2-4,1-4h-5l-4-1-3-3-6,1-5,2-3-3-3-2-5-3-5-3-5-3-4-4-3-9-5-5,1-5-3-1-5-3-5-3-4-2-1-4-1-6-3-3-4-3-1-3,3-1v-4l-5-1-3-1-4-3-4-6h-3l-2-3,1-4-2-6v-4l-1-6-3-5h-5l-5-1-2-4,3-2,1-5,1-5-3-3-4-6-4-6-4-7-1-5-3-3v-5l-1-4,1-8-1-6-2-5-2-3-1-7-5-3-2-5-4-4-2-6-2-6v-7l1-8,1-5,2-4,2-6v-4l-6-1-4-3-5-2-11-2-5-2-5-2,1-5-2-5-2-4-6-4-7-4-3,1-3,4-3,3-7-1-6-3-7-2-5-5-3-6-5-1-5,1-5,2-5,2-3,6-1,6-2,7v6l-1,5-1,5,2,4,3,3-1,4,3,1,2,5,2,9-1,7,1,9,1,5,1,6-2,6v8l1,7,1,5v5l5,6,3,6,2,5,3,4,3-3,5,2,5,6,7,7,6,6,6,6,7,7,4,6,1,7,4,7-2,6v7l3-1,4-1,4,1v5l2,5h4l3-2,3,4,3,10,2,8,3,4,5,2h5l3,3v5l-2,4v6l4,5-1,4,1,8,1,9,1,7,5,7,7,4,6,3,7,5,1,6v7l5,8,4,7,4,4,7,2,2,5-3,5,2,5,4,5-1,8,3,6,2,5,3,4h5l-1-5-4-4-2-4v-6l-1-5,2-1,4,2,5,7,5,4,2,3v5l2,5h4v5l1,6,3,6,1,6,1,6,1,5,1,4-3,6v7l1,7,4,5,2,5,2,6,7,6,3,2,2,5,2,6,1,6,3,8,3,5,5,6,4,6,2,7-1,6-3,5-1,6v6l2,4,1,6,3,6,2,4,4,4,7,3,5,3,3-3-1-5,1-6,5-3,2,5,6,6,6,5,1,5v5l6-1h5l2,3-1,6,1,5,3,1,3,3,1,5-3,4,5,4,6,5,7,3,2,5v19l-3,4-6,5-5,1-7,2-1,3-4,2-6,3-5,5-3-1-6-3-2-7-2-5-1-6V716l-1-4-2-5-3-4-2-5-4-4-4-4-5-2-4-3-5-4-5-4-3-5-3-5-3-4-5-4-3-5-4-2-3-3-6-4-4-5-5-3-7-2-5-4-5-4-2-5-1-6h-9l-4-4-3-3-3-6-2-3-5-1-2-2-1-6-1-7-1-8-1-6,4-5,3-7v-6l2-8V530l-4-5-1-6-2-7v-4l-4-3-3-3-3-6-4-8h-7l-5-3-5-5-8-7-7-3-6-7-4-6-7-6-3-5-4-2-5-1-5-2-5,2-6,2-6-3-3-7-2-7-9-1-6-3v-5l-5-2-1-5-9-2-9-1-3-3-2-7-1-6-5-6-5-4-6-5v-4l-3-4-8,1-4-8v-7l6,3,12,3,8,2h12l9-6,6-7,8-7,4-7-5-6,2-5,3-8-2-9-3-2-1-5-3-2-3-3-3-2-2-1-1-7-2-5-2-3-6-2-2-3v-3l-1-6h-3l-2-4-4-4-3-2-3-5-5-3-3-5-4-1-6-1-4-2-1-4-3-5h-3l-3-1-3-3-4-2-5-4-5-4-1-7v-7l-3-3-3-3,2-4v-7l1-5-1-8-4-5-5-1-4-1-1-3v-7l3-6-1-5-1-6-3-4-4-7-5-2-4-5,2-6-1-8-3-5-5-7-4-7-4-2-3-5V73l1-7,3-5,2-5-3-6-9-3-3-6,1-7,1-7-6-4-3-5-3-7,1.5-9.5,147,1-4,17,238,101,176,7,2-34,103,4,6.5,1.5,7,14,9,8,9,5,13,11,7,7,8,7,9,11,10,7,11,5,12,9,3,12,4,9,8,11,1,12,3,14,6,9,4,9,11,7,9,8,11,5,10,5,4,7,10,3,6,4,9,4,9,5h8l5-6,4-8,6-8,4-11,6-8,2-10,5-6h10l6-1,3-6,6-1,6,6h19l12,3h9l9,4,5,10,7,9,12,4,8,7,5,8,8,4,4,12,6,10,4,10,6,9,5,9,3,11,9,7,9,7,6,12,6,10,6,11,5,1,8,7,6,11-1,13-1,13,13,15,1,28,25,2,12,12,15,2,21,18,31-7,16,17,18-11,6,2,1,4v6l-1,5-5,2,1,4v5l-4,4-2,7-3,3-2,3-3-2-2-4-4,2v4l-2,2-7-2-6,4,2,5,1,10v13l-1,6,1,4v5l-2,5,2,3-1,6-1,4v8l1,7-1,10-2,6,2,5v7l1,7v5l1,6-1,9v14l1,7v13l-1,7v17l-2,2-3,5,1,6v13l3,7,1,10,1,7,2,6,3,6,5,5,5,7,4,4,3,3,4,2,4,4,4,3-1,4v4l-2,4-2,6-3,3v5l1,3,2,5,2,4,2,6,2,4,2,4,5,7,1,5,1,5,2,3,3,4,5,4,4,4,7,6,4,4,4,5,4,4,5,5,2,4,3,4,4,4,4,5,1,4,1,4,2,4,2,7v5l3,4,2,4,1,5v4l3,4,6,2,1,5,4,4,3,4,6-1,1,4,2,7,3,5,3,2,5,1,2,4,5,2,4,2h22l8-2,4,1,4,3,2,6,5,3,5-1h6l3,4,4,5,4,3,3,5,2,5,2,4,6,1h6l5-2,6-1,6-2,7-2,6-3,6-4,9-4,9-3,9-4,7-1,10-1,9,2,10-1,7-2,5-2,4-5,5-4,7-4,6-1,5-1,8-1,8-2h25l5-2,6-5,6-1,5-4,3-6,6-3,5-5,8-4,7-6,7-6,6-7,3-4,2-6,1-7-1-6,1-10,3-5,5-5,6-6,1-4v-6l-1-8-1-8V904l2-6,1-7-1-7,3-7,3-4,5-6,7-3,6-4,5-3,8-3,7-3,9-3,8-2,7-3,8-1,7-1,6-2h13l7-4,5-2,2-4,3-2,4-2,6-2h8l9-3,3-3,5-2h7l8,2,6,3,8,2,9,1,5,2,7,1,8-1,7-1,3-3-1-6h4l4,2,5,4,5,9,1,4,4-1v8l1,9v8l-2,10-5,8-6,7-7,11-6,5-4,8-4,6-4,8v10l1,7,1,5-2,5-6,5-7,3-4,4,1,5,5,4,11-1,5-8,2,10-9,7-9,8,3,10,3-8,12-2-5,8-3,8-1,8-3,7-2,8-3,9v11l-1,8-4,5-1,7-2,5-2-3v-6l-5-4-4-4-3-2-2-4,3-5,1-7-1-6-3-4-5,4-3,4v6l-4,8-4,6-5-1-9,7-4,9-7,14-7,9-3,8-5-1-5-4h-8l.5,15.5-128,8,2,40-31,1s0,3,1,3l2,1,2,1v2l2-1,2-1h1l1,2v1l1,2,2,2,2,2,1,1,2,1,3,1,4,4,2,2,3,3,2,1,3,1,3,1,3,1,3,2,5,3,2,2,2,2,1,2,1,3,1,2v2l1,4,2,2,2,2,5,1,6,1,3,2-1,3-3,4-2,4,1,7,1,3-2,3-2,1h-4l-80,5-32,64,3,3,1,1,2,1,1,2,3,2h2l1,2v2l-2,2-2,2v3l-1,3-1,2-2,2,1,3,2,3v6l-1,3v5l-2,1-.22,3.51Z"/></g>
    </g>
    <g id="Borders">
      <line class="cls-2" x1="665.05" y1="97.51" x2="659.05" y2="97.28"/>
      <line class="cls-3" x1="646.05" y1="96.77" x2="574.55" y2="93.99"/>
      <polyline class="cls-2" points="568.04 93.74 562.05 93.51 561.7 99.5"/>
      <line class="cls-5" x1="561.26" y1="106.84" x2="560.62" y2="117.85"/>
      <polyline class="cls-2" points="560.4 121.52 560.05 127.51 554.05 127.27"/>
      <polyline class="cls-6" points="541.99 126.79 384.05 120.51 157.13 24.21"/>
      <polyline class="cls-2" points="151.57 21.85 146.05 19.51 147.42 13.67"/>
      <polyline class="cls-2" points="148.68 8.35 150.05 2.51 144.05 2.47"/>
      <line class="cls-7" x1="131.78" y1="2.38" x2="15.19" y2="1.59"/>
      <line class="cls-2" x1="9.05" y1="1.55" x2="3.05" y2="1.51"/>
      <polyline class="cls-8" points="1804.05 1409.51 1804.05 1403.51 1805.33 1398.6 1813.05 1392.51 1819.05 1388.51 1821.05 1384.51 1819.05 1379.51 1813.05 1376.51 1810.05 1374.51 1804.05 1374.51 1801.05 1370.51"/>
      <polyline class="cls-8" points="1650.05 1362.51 1653.05 1357.51 1655.05 1352.51 1655.05 1347.51 1653.05 1340.51 1653.05 1335.51 1653.05 1330.51 1657.05 1325.51 1660.05 1321.51 1656.05 1317.51 1652.05 1314.51 1649.05 1309.51 1652.05 1301.51"/>
      <polyline
        class="cls-8"
        points="665.05 97.51 671.55 99.01 678.55 113.01 687.55 121.01 696.55 126.01 709.55 137.01 716.55 144.01 724.55 151.01 733.55 162.01 743.55 169.01 754.55 174.01 766.55 183.01 769.55 195.01 773.55 204.01 781.55 215.01 782.55 227.01 785.55 241.01 791.55 250.01 795.55 259.01 806.55 266.01 815.55 274.01 826.55 279.01 836.55 284.01 840.55 291.01 850.55 294.01 856.55 298.01 865.55 302.01 874.55 307.01 882.55 307.01 887.55 301.01 891.55 293.01 897.55 285.01 901.55 274.01 907.55 266.01 909.55 256.01 914.55 250.01 924.55 250.01 930.55 249.01 933.55 243.01 939.55 242.01 945.55 248.01 953.55 248.01 964.55 248.01 976.55 251.01 985.55 251.01 994.55 255.01 999.55 265.01 1006.55 274.01 1018.55 278.01 1026.55 285.01 1031.55 293.01 1039.55 297.01 1043.55 309.01 1049.55 319.01 1053.55 329.01 1059.55 338.01 1064.55 347.01 1067.55 358.01 1076.55 365.01 1085.55 372.01 1091.55 384.01 1097.55 394.01 1103.55 405.01 1108.55 406.01 1116.55 413.01 1122.55 424.01 1121.55 437.01 1120.55 450.01 1133.55 465.01 1134.55 493.01 1159.55 495.01 1171.55 507.01 1186.55 509.01 1207.55 527.01 1238.55 520.01 1254.55 537.01 1272.55 526.01 1278.55 528.01 1279.55 532.01 1279.55 538.01 1278.55 543.01"/></g>
    <g id="Route">
      <g id="Text">
        <path
          class="cls-9"
          d="M1950.27,1415.3a4.84,4.84,0,0,0,2.49.7c1.42,0,2.26-.75,2.26-1.84s-.58-1.59-2-2.13c-1.76-.63-2.85-1.55-2.85-3.06,0-1.68,1.39-2.93,3.49-2.93a5,5,0,0,1,2.38.52l-.38,1.15a4.06,4.06,0,0,0-2-.52c-1.48,0-2,.88-2,1.62,0,1,.65,1.49,2.14,2.07,1.83.72,2.75,1.59,2.75,3.18s-1.22,3.11-3.77,3.11a5.55,5.55,0,0,1-2.76-.71Z"/>
        <path
          class="cls-9"
          d="M1962.64,1417l-.13-1h0a2.9,2.9,0,0,1-2.37,1.15,2.21,2.21,0,0,1-2.36-2.22c0-1.87,1.66-2.9,4.65-2.88v-.16a1.6,1.6,0,0,0-1.76-1.79,3.71,3.71,0,0,0-2,.58l-.32-.94a4.91,4.91,0,0,1,2.56-.68c2.36,0,2.94,1.62,2.94,3.17v2.9a13.06,13.06,0,0,0,.11,1.85Zm-.22-4c-1.53,0-3.27.25-3.27,1.74a1.24,1.24,0,0,0,1.31,1.35,1.93,1.93,0,0,0,1.89-1.3,1.35,1.35,0,0,0,.07-.44Z"/>
        <path class="cls-9" d="M1966.05,1411.35c0-.81,0-1.45-.06-2.09h1.24l.08,1.27h0a2.85,2.85,0,0,1,2.56-1.45c1.06,0,2.73.64,2.73,3.3V1417h-1.4v-4.46c0-1.26-.47-2.3-1.79-2.3a2,2,0,0,0-1.9,1.44,2.13,2.13,0,0,0-.09.65V1417h-1.41Z"/>
        <path class="cls-9" d="M1978.37,1406.21h1.4v9.61h4.61V1417h-6Z"/>
        <path class="cls-9" d="M1992.11,1414.88c0,.81,0,1.51.07,2.12h-1.25l-.07-1.27h0a2.89,2.89,0,0,1-2.56,1.44c-1.22,0-2.67-.67-2.67-3.39v-4.52h1.4v4.27c0,1.48.46,2.48,1.73,2.48a2,2,0,0,0,1.86-1.29,2,2,0,0,0,.13-.72v-4.74h1.4Z"/>
        <path class="cls-9" d="M1996,1407.07a.85.85,0,0,1-.9.87.84.84,0,0,1-.85-.87.88.88,0,1,1,1.75,0Zm-1.58,9.93v-7.74h1.4V1417Z"/>
        <path
          class="cls-9"
          d="M1998,1415.56a3.76,3.76,0,0,0,1.87.56c1,0,1.5-.51,1.5-1.16s-.41-1-1.44-1.41c-1.4-.51-2.06-1.27-2.06-2.2a2.4,2.4,0,0,1,2.68-2.27,3.68,3.68,0,0,1,1.9.48l-.35,1a3,3,0,0,0-1.59-.46c-.83,0-1.28.48-1.28,1.07s.45.92,1.47,1.32c1.33.49,2,1.17,2,2.32,0,1.38-1.07,2.34-2.9,2.34a4.4,4.4,0,0,1-2.17-.54Z"/>
        <path class="cls-9" d="M2009.37,1406.21v4.52h5.21v-4.52h1.4V1417h-1.4v-5.06h-5.21V1417H2008v-10.79Z"/>
        <path
          class="cls-9"
          d="M2019.11,1413.38a2.47,2.47,0,0,0,2.65,2.69,5.15,5.15,0,0,0,2.15-.4l.24,1a6.12,6.12,0,0,1-2.58.5,3.61,3.61,0,0,1-3.81-3.91c0-2.35,1.38-4.18,3.64-4.18,2.53,0,3.19,2.22,3.19,3.64a3.45,3.45,0,0,1,0,.66Zm4.12-1a2,2,0,0,0-1.94-2.28,2.32,2.32,0,0,0-2.16,2.28Z"/>
        <path class="cls-9" d="M2026.34,1411.67c0-.92,0-1.7-.06-2.41h1.23l0,1.52h0a2.36,2.36,0,0,1,2.16-1.7,1.61,1.61,0,0,1,.39,0v1.33a1.73,1.73,0,0,0-.48,0,2,2,0,0,0-1.88,1.81,3.27,3.27,0,0,0-.06.65V1417h-1.4Z"/>
        <path class="cls-9" d="M2031.64,1411.67c0-.92,0-1.7-.07-2.41h1.23l.06,1.52h.05a2.35,2.35,0,0,1,2.15-1.7,1.64,1.64,0,0,1,.4,0v1.33a1.77,1.77,0,0,0-.48,0,2,2,0,0,0-1.89,1.81,4.29,4.29,0,0,0,0,.65V1417h-1.4Z"/>
        <path
          class="cls-9"
          d="M2041.08,1417l-.12-1h0a2.9,2.9,0,0,1-2.37,1.15,2.21,2.21,0,0,1-2.37-2.22c0-1.87,1.67-2.9,4.66-2.88v-.16a1.6,1.6,0,0,0-1.77-1.79,3.67,3.67,0,0,0-2,.58l-.32-.94a4.87,4.87,0,0,1,2.55-.68c2.37,0,3,1.62,3,3.17v2.9a11.72,11.72,0,0,0,.11,1.85Zm-.22-4c-1.52,0-3.26.25-3.26,1.74a1.23,1.23,0,0,0,1.31,1.35,1.94,1.94,0,0,0,1.89-1.3,1.34,1.34,0,0,0,.06-.44Z"/>
        <path
          class="cls-9"
          d="M2051.18,1405.63V1415c0,.69,0,1.46.07,2H2050l-.08-1.34h0a2.85,2.85,0,0,1-2.63,1.51c-1.87,0-3.32-1.58-3.32-3.93,0-2.59,1.59-4.16,3.48-4.16a2.57,2.57,0,0,1,2.33,1.18h0v-4.63Zm-1.4,6.78a2.53,2.53,0,0,0-.06-.61,2.06,2.06,0,0,0-2-1.61c-1.46,0-2.33,1.27-2.33,3s.78,2.88,2.3,2.88a2.11,2.11,0,0,0,2-1.69,2.25,2.25,0,0,0,.07-.6Z"/>
        <path class="cls-9" d="M2060,1414.88c0,.81,0,1.51.06,2.12h-1.24l-.08-1.27h0a2.86,2.86,0,0,1-2.56,1.44c-1.21,0-2.66-.67-2.66-3.39v-4.52h1.4v4.27c0,1.48.46,2.48,1.73,2.48a2,2,0,0,0,1.86-1.29,2.2,2.2,0,0,0,.13-.72v-4.74h1.4Z"/>
        <path class="cls-9" d="M2062.34,1411.67c0-.92,0-1.7-.06-2.41h1.23l0,1.52h.05a2.36,2.36,0,0,1,2.16-1.7,1.61,1.61,0,0,1,.39,0v1.33a1.73,1.73,0,0,0-.48,0,2,2,0,0,0-1.88,1.81,3.27,3.27,0,0,0-.06.65V1417h-1.4Z"/>
        <path
          class="cls-9"
          d="M2071.79,1417l-.13-1h0a2.9,2.9,0,0,1-2.37,1.15,2.21,2.21,0,0,1-2.36-2.22c0-1.87,1.66-2.9,4.65-2.88v-.16a1.6,1.6,0,0,0-1.76-1.79,3.71,3.71,0,0,0-2,.58l-.32-.94a4.91,4.91,0,0,1,2.56-.68c2.36,0,2.94,1.62,2.94,3.17v2.9a13.06,13.06,0,0,0,.11,1.85Zm-.22-4c-1.53,0-3.27.25-3.27,1.74a1.24,1.24,0,0,0,1.31,1.35,1.93,1.93,0,0,0,1.89-1.3,1.35,1.35,0,0,0,.07-.44Z"/>
        <path
          class="cls-9"
          d="M1823.27,1431.3a4.84,4.84,0,0,0,2.49.7c1.42,0,2.26-.75,2.26-1.84s-.58-1.59-2-2.13c-1.76-.63-2.85-1.55-2.85-3.06,0-1.68,1.39-2.93,3.49-2.93a5,5,0,0,1,2.38.52l-.38,1.15a4.06,4.06,0,0,0-2-.52c-1.48,0-2,.88-2,1.62,0,1,.65,1.49,2.14,2.07,1.83.72,2.75,1.59,2.75,3.18s-1.22,3.11-3.77,3.11a5.55,5.55,0,0,1-2.76-.71Z"/>
        <path
          class="cls-9"
          d="M1835.64,1433l-.13-1h0a2.9,2.9,0,0,1-2.37,1.15,2.21,2.21,0,0,1-2.36-2.22c0-1.87,1.66-2.9,4.65-2.88v-.16a1.6,1.6,0,0,0-1.76-1.79,3.71,3.71,0,0,0-2,.58l-.32-.94a4.91,4.91,0,0,1,2.56-.68c2.36,0,2.94,1.62,2.94,3.17v2.9a13.06,13.06,0,0,0,.11,1.85Zm-.22-4c-1.53,0-3.27.25-3.27,1.74a1.24,1.24,0,0,0,1.31,1.35,1.93,1.93,0,0,0,1.89-1.3,1.35,1.35,0,0,0,.07-.44Z"/>
        <path class="cls-9" d="M1839.05,1427.35c0-.81,0-1.45-.06-2.09h1.24l.08,1.27h0a2.85,2.85,0,0,1,2.56-1.45c1.06,0,2.73.64,2.73,3.3V1433h-1.4v-4.46c0-1.26-.47-2.3-1.79-2.3a2,2,0,0,0-1.9,1.44,2.13,2.13,0,0,0-.09.65V1433h-1.41Z"/>
        <path
          class="cls-9"
          d="M1851.19,1431.3a4.84,4.84,0,0,0,2.49.7c1.42,0,2.26-.75,2.26-1.84s-.58-1.59-2-2.13c-1.76-.63-2.85-1.55-2.85-3.06,0-1.68,1.39-2.93,3.49-2.93a5,5,0,0,1,2.38.52l-.38,1.15a4.06,4.06,0,0,0-2-.52c-1.48,0-2,.88-2,1.62,0,1,.65,1.49,2.14,2.07,1.83.72,2.75,1.59,2.75,3.18s-1.22,3.11-3.77,3.11a5.55,5.55,0,0,1-2.76-.71Z"/>
        <path
          class="cls-9"
          d="M1863.55,1433l-.12-1h0a2.9,2.9,0,0,1-2.37,1.15,2.21,2.21,0,0,1-2.36-2.22c0-1.87,1.66-2.9,4.65-2.88v-.16a1.6,1.6,0,0,0-1.76-1.79,3.71,3.71,0,0,0-2,.58l-.32-.94a4.9,4.9,0,0,1,2.55-.68c2.37,0,3,1.62,3,3.17v2.9a13.06,13.06,0,0,0,.11,1.85Zm-.21-4c-1.53,0-3.27.25-3.27,1.74a1.24,1.24,0,0,0,1.31,1.35,1.93,1.93,0,0,0,1.89-1.3,1.35,1.35,0,0,0,.07-.44Z"/>
        <path class="cls-9" d="M1867,1421.63h1.41V1433H1867Z"/>
        <path class="cls-9" d="M1871.29,1425.26l1.52,4.34c.26.71.46,1.35.63,2h0c.17-.65.4-1.29.64-2l1.52-4.34h1.47l-3,7.74h-1.35l-3-7.74Z"/>
        <path
          class="cls-9"
          d="M1882.67,1433l-.12-1h0a2.9,2.9,0,0,1-2.37,1.15,2.21,2.21,0,0,1-2.36-2.22c0-1.87,1.66-2.9,4.65-2.88v-.16a1.6,1.6,0,0,0-1.76-1.79,3.68,3.68,0,0,0-2,.58l-.32-.94a4.9,4.9,0,0,1,2.55-.68c2.37,0,2.95,1.62,2.95,3.17v2.9a13.06,13.06,0,0,0,.11,1.85Zm-.21-4c-1.53,0-3.27.25-3.27,1.74a1.24,1.24,0,0,0,1.31,1.35,1.94,1.94,0,0,0,1.89-1.3,1.35,1.35,0,0,0,.07-.44Z"/>
        <path
          class="cls-9"
          d="M1892.77,1421.63V1431c0,.69,0,1.46.07,2h-1.25l-.07-1.34h0a2.84,2.84,0,0,1-2.63,1.51c-1.87,0-3.32-1.58-3.32-3.93,0-2.59,1.59-4.16,3.48-4.16a2.56,2.56,0,0,1,2.33,1.18h0v-4.63Zm-1.39,6.78a3.15,3.15,0,0,0-.06-.61,2.08,2.08,0,0,0-2-1.61c-1.46,0-2.33,1.27-2.33,3s.78,2.88,2.3,2.88a2.12,2.12,0,0,0,2.06-1.69,2.25,2.25,0,0,0,.07-.6Z"/>
        <path class="cls-9" d="M1902.13,1429.05a3.79,3.79,0,0,1-3.85,4.12,3.69,3.69,0,0,1-3.73-4,3.79,3.79,0,0,1,3.85-4.11A3.67,3.67,0,0,1,1902.13,1429.05Zm-6.14.09c0,1.7,1,3,2.34,3s2.36-1.26,2.36-3c0-1.31-.66-3-2.33-3S1896,1427.68,1896,1429.14Z"/>
        <path class="cls-9" d="M1903.9,1427.67c0-.92,0-1.7-.06-2.41h1.23l0,1.52h.05a2.36,2.36,0,0,1,2.16-1.7,1.61,1.61,0,0,1,.39,0v1.33a1.73,1.73,0,0,0-.48,0,2,2,0,0,0-1.88,1.81,3.27,3.27,0,0,0-.06.65V1433h-1.4Z"/>
        <path class="cls-9" d="M1664.51,1371.39h-3.29v-1.18h8v1.18h-3.3V1381h-1.4Z"/>
        <path
          class="cls-9"
          d="M1670,1377.38a2.47,2.47,0,0,0,2.65,2.69,5.1,5.1,0,0,0,2.14-.4l.25,1a6.12,6.12,0,0,1-2.58.5,3.61,3.61,0,0,1-3.81-3.91c0-2.35,1.38-4.18,3.64-4.18,2.53,0,3.19,2.22,3.19,3.64a3.45,3.45,0,0,1,0,.66Zm4.12-1a2,2,0,0,0-1.94-2.28,2.31,2.31,0,0,0-2.16,2.28Z"/>
        <path class="cls-9" d="M1682.76,1380.72a5.36,5.36,0,0,1-2.22.45,3.69,3.69,0,0,1-3.86-4,3.94,3.94,0,0,1,4.15-4.13,4.43,4.43,0,0,1,2,.42l-.31,1.08a3.37,3.37,0,0,0-1.65-.37,2.69,2.69,0,0,0-2.73,2.93,2.65,2.65,0,0,0,2.7,2.89,4.12,4.12,0,0,0,1.72-.37Z"/>
        <path class="cls-9" d="M1690.9,1378.88c0,.81,0,1.51.06,2.12h-1.24l-.08-1.27h0a2.86,2.86,0,0,1-2.56,1.44c-1.21,0-2.67-.67-2.67-3.39v-4.52h1.4v4.27c0,1.48.46,2.48,1.73,2.48a2.05,2.05,0,0,0,1.87-1.29,2.2,2.2,0,0,0,.13-.72v-4.74h1.4Z"/>
        <path class="cls-9" d="M1693.24,1375.35c0-.81,0-1.45-.06-2.09h1.24l.08,1.27h0a2.85,2.85,0,0,1,2.56-1.45c1.06,0,2.72.64,2.72,3.3V1381h-1.4v-4.46c0-1.26-.47-2.3-1.79-2.3a2,2,0,0,0-1.89,1.44,2.11,2.11,0,0,0-.1.65V1381h-1.4Z"/>
        <path class="cls-9" d="M1707,1370.21v6.39c0,2.41,1.06,3.43,2.52,3.43s2.62-1.06,2.62-3.43v-6.39h1.4v6.29c0,3.32-1.74,4.67-4.08,4.67s-3.86-1.25-3.86-4.61v-6.35Z"/>
        <path
          class="cls-9"
          d="M1715.85,1375.35c0-.81,0-1.45-.07-2.09H1717l.07,1.24h0a2.68,2.68,0,0,1,2.44-1.42,2.3,2.3,0,0,1,2.19,1.55h0a3.25,3.25,0,0,1,.87-1,2.64,2.64,0,0,1,1.7-.54c1,0,2.56.67,2.56,3.36V1381h-1.37v-4.38c0-1.5-.56-2.39-1.68-2.39a1.84,1.84,0,0,0-1.68,1.27,2.25,2.25,0,0,0-.11.71V1381h-1.38v-4.65c0-1.23-.54-2.12-1.61-2.12a1.94,1.94,0,0,0-1.75,1.41,2.17,2.17,0,0,0-.11.69V1381h-1.37Z"/>
        <path
          class="cls-9"
          d="M1733.48,1381l-.12-1h0a2.9,2.9,0,0,1-2.37,1.15,2.21,2.21,0,0,1-2.37-2.22c0-1.87,1.67-2.9,4.66-2.88v-.16a1.6,1.6,0,0,0-1.77-1.79,3.67,3.67,0,0,0-2,.58l-.32-.94a4.9,4.9,0,0,1,2.55-.68c2.37,0,3,1.62,3,3.17v2.9a13.06,13.06,0,0,0,.11,1.85Zm-.22-4c-1.52,0-3.26.25-3.26,1.74a1.23,1.23,0,0,0,1.31,1.35,1.94,1.94,0,0,0,1.89-1.3,1.34,1.34,0,0,0,.06-.44Z"/>
        <path class="cls-9" d="M1736.9,1375.35c0-.81,0-1.45-.06-2.09h1.24l.08,1.27h0a2.85,2.85,0,0,1,2.56-1.45c1.06,0,2.73.64,2.73,3.3V1381h-1.4v-4.46c0-1.26-.48-2.3-1.79-2.3a2,2,0,0,0-1.9,1.44,2.11,2.11,0,0,0-.1.65V1381h-1.4Z"/>
        <path class="cls-9" d="M1061.2,1213.61l-1.12,3.39h-1.44l3.67-10.79H1064l3.69,10.79h-1.49l-1.16-3.39Zm3.54-1.09-1.07-3.11c-.23-.7-.39-1.35-.55-2h0c-.15.63-.32,1.28-.53,1.94l-1.07,3.13Z"/>
        <path class="cls-9" d="M1074.53,1216.72a5.36,5.36,0,0,1-2.22.45,3.69,3.69,0,0,1-3.87-4,4,4,0,0,1,4.16-4.13,4.43,4.43,0,0,1,2,.42l-.31,1.08a3.4,3.4,0,0,0-1.65-.37,2.68,2.68,0,0,0-2.73,2.93,2.65,2.65,0,0,0,2.7,2.89,4.15,4.15,0,0,0,1.72-.37Z"/>
        <path
          class="cls-9"
          d="M1080.48,1217l-.12-1h0a2.9,2.9,0,0,1-2.37,1.15,2.21,2.21,0,0,1-2.36-2.22c0-1.87,1.66-2.9,4.65-2.88v-.16a1.6,1.6,0,0,0-1.77-1.79,3.67,3.67,0,0,0-2,.58l-.32-.94a4.9,4.9,0,0,1,2.55-.68c2.37,0,3,1.62,3,3.17v2.9a13.06,13.06,0,0,0,.11,1.85Zm-.22-4c-1.52,0-3.26.25-3.26,1.74a1.23,1.23,0,0,0,1.31,1.35,1.94,1.94,0,0,0,1.89-1.3,1.34,1.34,0,0,0,.06-.44Z"/>
        <path
          class="cls-9"
          d="M1083.9,1211.78c0-1,0-1.79-.06-2.52h1.26l.07,1.32h0a3,3,0,0,1,2.75-1.5c1.88,0,3.29,1.58,3.29,3.93,0,2.79-1.71,4.16-3.52,4.16a2.7,2.7,0,0,1-2.39-1.22h0v4.22h-1.4Zm1.4,2.07a2.62,2.62,0,0,0,.06.57,2.17,2.17,0,0,0,2.11,1.65c1.49,0,2.35-1.22,2.35-3,0-1.54-.81-2.87-2.3-2.87a2.24,2.24,0,0,0-2.13,1.74,2.71,2.71,0,0,0-.09.57Z"/>
        <path class="cls-9" d="M1099.48,1214.88c0,.81,0,1.51.06,2.12h-1.24l-.08-1.27h0a2.89,2.89,0,0,1-2.57,1.44c-1.21,0-2.66-.67-2.66-3.39v-4.52h1.4v4.27c0,1.48.46,2.48,1.73,2.48a2,2,0,0,0,1.86-1.29,2.2,2.2,0,0,0,.13-.72v-4.74h1.4Z"/>
        <path class="cls-9" d="M1101.82,1205.63h1.4V1217h-1.4Z"/>
        <path class="cls-9" d="M1111.12,1216.72a5.36,5.36,0,0,1-2.22.45,3.69,3.69,0,0,1-3.87-4,4,4,0,0,1,4.16-4.13,4.43,4.43,0,0,1,2,.42l-.31,1.08a3.37,3.37,0,0,0-1.65-.37,2.69,2.69,0,0,0-2.73,2.93,2.65,2.65,0,0,0,2.7,2.89,4.12,4.12,0,0,0,1.72-.37Z"/>
        <path class="cls-9" d="M1119.68,1213.05a3.79,3.79,0,0,1-3.85,4.12,3.68,3.68,0,0,1-3.72-4,3.78,3.78,0,0,1,3.84-4.11A3.66,3.66,0,0,1,1119.68,1213.05Zm-6.14.09c0,1.7,1,3,2.35,3s2.36-1.26,2.36-3c0-1.31-.66-3-2.34-3S1113.54,1211.68,1113.54,1213.14Z"/>
        <path
          class="cls-9"
          d="M1445.27,1257.3a4.84,4.84,0,0,0,2.49.7c1.42,0,2.26-.75,2.26-1.84s-.58-1.59-2-2.13c-1.76-.63-2.85-1.55-2.85-3.06,0-1.68,1.39-2.93,3.49-2.93a5,5,0,0,1,2.38.52l-.38,1.15a4.06,4.06,0,0,0-2-.52c-1.48,0-2,.88-2,1.62,0,1,.65,1.49,2.14,2.07,1.83.72,2.75,1.59,2.75,3.18s-1.22,3.11-3.77,3.11a5.55,5.55,0,0,1-2.76-.71Z"/>
        <path
          class="cls-9"
          d="M1457.64,1259l-.13-1h0a2.9,2.9,0,0,1-2.37,1.15,2.21,2.21,0,0,1-2.36-2.22c0-1.87,1.66-2.9,4.65-2.88v-.16a1.6,1.6,0,0,0-1.76-1.79,3.71,3.71,0,0,0-2,.58l-.32-.94a4.91,4.91,0,0,1,2.56-.68c2.36,0,2.94,1.62,2.94,3.17v2.9a13.06,13.06,0,0,0,.11,1.85Zm-.22-4c-1.53,0-3.27.25-3.27,1.74a1.24,1.24,0,0,0,1.31,1.35,1.93,1.93,0,0,0,1.89-1.3,1.35,1.35,0,0,0,.07-.44Z"/>
        <path class="cls-9" d="M1461.05,1247.63h1.41V1259h-1.41Z"/>
        <path class="cls-9" d="M1466.4,1249.07a.87.87,0,1,1-1.74,0,.85.85,0,0,1,.87-.88A.84.84,0,0,1,1466.4,1249.07Zm-1.57,9.93v-7.74h1.4V1259Z"/>
        <path class="cls-9" d="M1468.58,1253.35c0-.81,0-1.45-.07-2.09h1.25l.07,1.27h0a2.85,2.85,0,0,1,2.56-1.45c1.07,0,2.73.64,2.73,3.3V1259h-1.4v-4.46c0-1.26-.47-2.3-1.79-2.3a2,2,0,0,0-1.9,1.44,2.13,2.13,0,0,0-.09.65V1259h-1.4Z"/>
        <path
          class="cls-9"
          d="M1481.75,1259l-.13-1h0a2.88,2.88,0,0,1-2.37,1.15,2.21,2.21,0,0,1-2.36-2.22c0-1.87,1.66-2.9,4.65-2.88v-.16a1.6,1.6,0,0,0-1.76-1.79,3.71,3.71,0,0,0-2,.58l-.32-.94a4.91,4.91,0,0,1,2.56-.68c2.36,0,2.94,1.62,2.94,3.17v2.9a11.65,11.65,0,0,0,.12,1.85Zm-.22-4c-1.53,0-3.27.25-3.27,1.74a1.24,1.24,0,0,0,1.31,1.35,1.93,1.93,0,0,0,1.89-1.3,1.35,1.35,0,0,0,.07-.44Z"/>
        <path
          class="cls-9"
          d="M1485,1257.56a3.75,3.75,0,0,0,1.86.56c1,0,1.51-.51,1.51-1.16s-.41-1-1.44-1.41c-1.4-.51-2.06-1.27-2.06-2.2a2.4,2.4,0,0,1,2.68-2.27,3.68,3.68,0,0,1,1.9.48l-.35,1a3,3,0,0,0-1.59-.46c-.83,0-1.28.48-1.28,1.07s.45.92,1.47,1.32c1.33.49,2,1.17,2,2.32,0,1.38-1.07,2.34-2.9,2.34a4.37,4.37,0,0,1-2.17-.54Z"/>
        <path class="cls-9" d="M1496.74,1259l-3.53-10.79h1.51l1.68,5.32c.46,1.45.86,2.77,1.15,4h0c.3-1.24.74-2.6,1.23-4l1.82-5.34h1.49l-3.85,10.79Z"/>
        <path class="cls-9" d="M1504.56,1249.07a.87.87,0,1,1-1.74,0,.85.85,0,0,1,.87-.88A.84.84,0,0,1,1504.56,1249.07ZM1503,1259v-7.74h1.4V1259Z"/>
        <path class="cls-9" d="M1512.25,1258.72a5.36,5.36,0,0,1-2.22.45,3.69,3.69,0,0,1-3.86-4,4,4,0,0,1,4.16-4.13,4.43,4.43,0,0,1,2,.42l-.32,1.08a3.33,3.33,0,0,0-1.64-.37,2.68,2.68,0,0,0-2.73,2.93,2.65,2.65,0,0,0,2.69,2.89,4.17,4.17,0,0,0,1.73-.37Z"/>
        <path class="cls-9" d="M1515.8,1249v2.23h2v1.06h-2v4.18c0,1,.28,1.5,1.06,1.5a2.7,2.7,0,0,0,.82-.1l.07,1.07a3.59,3.59,0,0,1-1.26.2,2,2,0,0,1-1.52-.6,3,3,0,0,1-.55-2v-4.23h-1.2v-1.06h1.2v-1.87Z"/>
        <path class="cls-9" d="M1526.32,1255.05a3.79,3.79,0,0,1-3.85,4.12,3.68,3.68,0,0,1-3.72-4,3.78,3.78,0,0,1,3.84-4.11A3.66,3.66,0,0,1,1526.32,1255.05Zm-6.14.09c0,1.7,1,3,2.34,3s2.36-1.26,2.36-3c0-1.31-.66-3-2.33-3S1520.18,1253.68,1520.18,1255.14Z"/>
        <path class="cls-9" d="M1528.09,1253.67c0-.92,0-1.7-.06-2.41h1.23l0,1.52h0a2.37,2.37,0,0,1,2.16-1.7,1.61,1.61,0,0,1,.39,0v1.33a1.68,1.68,0,0,0-.48,0,2,2,0,0,0-1.88,1.81,3.27,3.27,0,0,0-.06.65V1259h-1.4Z"/>
        <path class="cls-9" d="M1535,1249.07a.87.87,0,1,1-1.74,0,.85.85,0,0,1,.87-.88A.84.84,0,0,1,1535,1249.07Zm-1.57,9.93v-7.74h1.4V1259Z"/>
        <path
          class="cls-9"
          d="M1541.43,1259l-.13-1h0a2.88,2.88,0,0,1-2.37,1.15,2.21,2.21,0,0,1-2.36-2.22c0-1.87,1.66-2.9,4.65-2.88v-.16a1.6,1.6,0,0,0-1.76-1.79,3.71,3.71,0,0,0-2,.58l-.32-.94a4.91,4.91,0,0,1,2.56-.68c2.36,0,2.94,1.62,2.94,3.17v2.9a11.65,11.65,0,0,0,.12,1.85Zm-.22-4c-1.53,0-3.27.25-3.27,1.74a1.24,1.24,0,0,0,1.31,1.35,1.93,1.93,0,0,0,1.89-1.3,1.35,1.35,0,0,0,.07-.44Z"/>
        <path
          class="cls-9"
          d="M880.85,925.8a9.9,9.9,0,0,1-3.31.59A5.07,5.07,0,0,1,872,921c0-3.22,2.22-5.58,5.84-5.58a6.75,6.75,0,0,1,2.69.5l-.34,1.14a5.41,5.41,0,0,0-2.39-.47,4,4,0,0,0-4.33,4.34c0,2.73,1.64,4.35,4.16,4.35a4.6,4.6,0,0,0,1.86-.29v-3.22H877.3v-1.11h3.55Z"/>
        <path class="cls-9" d="M889.43,924.16c0,.81,0,1.51.07,2.12h-1.25l-.07-1.26h0a2.91,2.91,0,0,1-2.57,1.44c-1.21,0-2.66-.68-2.66-3.4v-4.52h1.4v4.28c0,1.47.46,2.48,1.73,2.48a2,2,0,0,0,1.86-1.3,2,2,0,0,0,.13-.72v-4.74h1.4Z"/>
        <path
          class="cls-9"
          d="M896.07,926.28l-.13-1h0a2.86,2.86,0,0,1-2.37,1.16,2.21,2.21,0,0,1-2.36-2.22c0-1.88,1.66-2.91,4.65-2.89v-.16a1.6,1.6,0,0,0-1.76-1.79,3.79,3.79,0,0,0-2,.58l-.32-.94a4.91,4.91,0,0,1,2.56-.68c2.36,0,2.94,1.62,2.94,3.17v2.9a11.65,11.65,0,0,0,.12,1.85Zm-.22-3.95c-1.53,0-3.27.24-3.27,1.74a1.23,1.23,0,0,0,1.31,1.34,1.94,1.94,0,0,0,1.89-1.29,1.45,1.45,0,0,0,.07-.45Z"/>
        <path
          class="cls-9"
          d="M906.17,914.92v9.36c0,.69,0,1.47.06,2H905l-.07-1.34h0a2.83,2.83,0,0,1-2.63,1.52c-1.87,0-3.32-1.59-3.32-3.94,0-2.58,1.6-4.16,3.48-4.16a2.59,2.59,0,0,1,2.34,1.18h0v-4.62Zm-1.4,6.77a3.05,3.05,0,0,0-.06-.6,2.08,2.08,0,0,0-2-1.62c-1.46,0-2.33,1.28-2.33,3s.78,2.88,2.3,2.88a2.13,2.13,0,0,0,2.06-1.69,2.37,2.37,0,0,0,.07-.61Z"/>
        <path
          class="cls-9"
          d="M912.8,926.28l-.12-1h0a2.88,2.88,0,0,1-2.37,1.16,2.21,2.21,0,0,1-2.37-2.22c0-1.88,1.67-2.91,4.66-2.89v-.16a1.6,1.6,0,0,0-1.77-1.79,3.76,3.76,0,0,0-2,.58l-.32-.94a4.87,4.87,0,0,1,2.55-.68c2.37,0,3,1.62,3,3.17v2.9a13.06,13.06,0,0,0,.11,1.85Zm-.22-3.95c-1.52,0-3.26.24-3.26,1.74a1.23,1.23,0,0,0,1.31,1.34,2,2,0,0,0,1.89-1.29,1.43,1.43,0,0,0,.06-.45Z"/>
        <path class="cls-9" d="M916.22,914.92h1.4v11.36h-1.4Z"/>
        <path
          class="cls-9"
          d="M924.29,926.28l-.12-1h0a2.86,2.86,0,0,1-2.36,1.16,2.21,2.21,0,0,1-2.37-2.22c0-1.88,1.66-2.91,4.65-2.89v-.16a1.59,1.59,0,0,0-1.76-1.79,3.82,3.82,0,0,0-2,.58l-.32-.94a4.94,4.94,0,0,1,2.56-.68c2.37,0,2.94,1.62,2.94,3.17v2.9a11.65,11.65,0,0,0,.12,1.85Zm-.22-3.95c-1.52,0-3.27.24-3.27,1.74a1.24,1.24,0,0,0,1.32,1.34,1.93,1.93,0,0,0,1.88-1.29,1.45,1.45,0,0,0,.07-.45Z"/>
        <path class="cls-9" d="M925.81,928.52a2.23,2.23,0,0,0,1.54-.6c.38-.43.54-1,.54-2.9v-6.48h1.4v7a4.3,4.3,0,0,1-.92,3.19,3.67,3.67,0,0,1-2.41.88Zm3.65-12.17a.88.88,0,1,1-.86-.87A.84.84,0,0,1,929.46,916.35Z"/>
        <path
          class="cls-9"
          d="M935.89,926.28l-.12-1h0a2.86,2.86,0,0,1-2.36,1.16,2.21,2.21,0,0,1-2.37-2.22c0-1.88,1.66-2.91,4.65-2.89v-.16a1.59,1.59,0,0,0-1.76-1.79,3.76,3.76,0,0,0-2,.58l-.33-.94a4.94,4.94,0,0,1,2.56-.68c2.37,0,2.94,1.62,2.94,3.17v2.9a11.65,11.65,0,0,0,.12,1.85Zm-.22-3.95c-1.52,0-3.27.24-3.27,1.74a1.24,1.24,0,0,0,1.32,1.34,1.93,1.93,0,0,0,1.88-1.29,1.45,1.45,0,0,0,.07-.45Z"/>
        <path class="cls-9" d="M939.31,921c0-.91,0-1.69-.07-2.41h1.24l0,1.52h.05a2.36,2.36,0,0,1,2.16-1.7,1.61,1.61,0,0,1,.39,0v1.33a2.33,2.33,0,0,0-.48,0,2,2,0,0,0-1.89,1.8,4.54,4.54,0,0,0,0,.66v4.13h-1.4Z"/>
        <path
          class="cls-9"
          d="M948.75,926.28l-.12-1h0a2.88,2.88,0,0,1-2.37,1.16,2.21,2.21,0,0,1-2.36-2.22c0-1.88,1.66-2.91,4.65-2.89v-.16a1.6,1.6,0,0,0-1.77-1.79,3.76,3.76,0,0,0-2,.58l-.32-.94a4.9,4.9,0,0,1,2.55-.68c2.37,0,2.95,1.62,2.95,3.17v2.9a13.06,13.06,0,0,0,.11,1.85Zm-.22-3.95c-1.52,0-3.26.24-3.26,1.74a1.23,1.23,0,0,0,1.31,1.34,2,2,0,0,0,1.89-1.29,1.43,1.43,0,0,0,.06-.45Z"/>
        <path
          class="cls-9"
          d="M677,726.18c-.09-1.49-.18-3.32-.17-4.65h0c-.37,1.25-.82,2.61-1.36,4.09l-1.9,5.23h-1.05l-1.76-5.13c-.51-1.53-.93-2.91-1.24-4.19h0c0,1.35-.11,3.14-.21,4.76l-.29,4.63h-1.33l.76-10.79h1.78l1.83,5.22c.45,1.33.81,2.51,1.09,3.64h0c.28-1.09.66-2.28,1.14-3.63l1.93-5.23h1.78l.67,10.79h-1.37Z"/>
        <path
          class="cls-9"
          d="M685.05,730.92l-.12-1h0a2.88,2.88,0,0,1-2.37,1.16,2.21,2.21,0,0,1-2.36-2.22c0-1.88,1.66-2.91,4.65-2.89v-.16a1.6,1.6,0,0,0-1.76-1.79,3.79,3.79,0,0,0-2,.58l-.32-.94a4.9,4.9,0,0,1,2.55-.68c2.37,0,3,1.62,3,3.17v2.9a13.06,13.06,0,0,0,.11,1.85Zm-.21-3.95c-1.53,0-3.27.24-3.27,1.74a1.24,1.24,0,0,0,1.31,1.35,2,2,0,0,0,1.89-1.3,1.45,1.45,0,0,0,.07-.45Z"/>
        <path class="cls-9" d="M687.59,730.1l3.5-4.55c.35-.43.66-.8,1-1.21v0h-4.2v-1.13h5.91v.88l-3.46,4.5c-.33.42-.65.82-1,1.2v0h4.52v1.12h-6.29Z"/>
        <path
          class="cls-9"
          d="M699.61,730.92l-.12-1h0a2.88,2.88,0,0,1-2.37,1.16,2.21,2.21,0,0,1-2.36-2.22c0-1.88,1.66-2.91,4.65-2.89v-.16a1.6,1.6,0,0,0-1.76-1.79,3.79,3.79,0,0,0-2,.58l-.32-.94a4.9,4.9,0,0,1,2.55-.68c2.37,0,2.95,1.62,2.95,3.17v2.9a13.06,13.06,0,0,0,.11,1.85ZM699.4,727c-1.53,0-3.27.24-3.27,1.74a1.24,1.24,0,0,0,1.31,1.35,2,2,0,0,0,1.89-1.3,1.45,1.45,0,0,0,.07-.45Z"/>
        <path class="cls-9" d="M704.66,721v2.23h2v1.07h-2v4.17c0,1,.28,1.51,1.06,1.51a3.06,3.06,0,0,0,.82-.1l.07,1.07a3.88,3.88,0,0,1-1.26.19,1.94,1.94,0,0,1-1.52-.6,2.94,2.94,0,0,1-.55-2v-4.22h-1.2v-1.07h1.2v-1.86Z"/>
        <path class="cls-9" d="M708.27,719.56h1.4v11.36h-1.4Z"/>
        <path
          class="cls-9"
          d="M716.33,730.92l-.12-1h0a2.88,2.88,0,0,1-2.37,1.16,2.21,2.21,0,0,1-2.36-2.22c0-1.88,1.66-2.91,4.65-2.89v-.16a1.6,1.6,0,0,0-1.76-1.79,3.77,3.77,0,0,0-2,.58l-.32-.94a4.9,4.9,0,0,1,2.55-.68c2.37,0,3,1.62,3,3.17v2.9a13.06,13.06,0,0,0,.11,1.85Zm-.21-3.95c-1.53,0-3.27.24-3.27,1.74a1.24,1.24,0,0,0,1.31,1.35,2,2,0,0,0,1.89-1.3,1.45,1.45,0,0,0,.07-.45Z"/>
        <path class="cls-9" d="M719.75,725.27c0-.81,0-1.45-.06-2.09h1.24l.08,1.27h0a2.87,2.87,0,0,1,2.56-1.45c1.06,0,2.73.64,2.73,3.3v4.62h-1.4v-4.46c0-1.25-.47-2.3-1.79-2.3a2,2,0,0,0-1.9,1.44,2.18,2.18,0,0,0-.1.66v4.66h-1.4Z"/>
        <path class="cls-9" d="M503.45,525.41h1.4V535h4.61v1.18h-6Z"/>
        <path class="cls-9" d="M517.74,532.25a3.79,3.79,0,0,1-3.85,4.12,3.68,3.68,0,0,1-3.72-4,3.78,3.78,0,0,1,3.84-4.11A3.66,3.66,0,0,1,517.74,532.25Zm-6.14.09c0,1.7,1,3,2.35,3s2.36-1.26,2.36-3c0-1.31-.66-3-2.34-3S511.6,530.88,511.6,532.34Z"/>
        <path
          class="cls-9"
          d="M519.32,534.77a3.86,3.86,0,0,0,1.86.55c1,0,1.51-.51,1.51-1.16s-.41-1-1.44-1.41c-1.4-.51-2.06-1.27-2.06-2.2a2.4,2.4,0,0,1,2.68-2.27,3.78,3.78,0,0,1,1.9.48l-.35,1a3,3,0,0,0-1.59-.45c-.83,0-1.28.47-1.28,1.06s.45.93,1.47,1.32c1.33.5,2,1.17,2,2.33,0,1.37-1.07,2.33-2.9,2.33a4.37,4.37,0,0,1-2.17-.54Z"/>
        <path
          class="cls-9"
          d="M538.39,531.46c-.08-1.5-.18-3.32-.17-4.65h-.05c-.37,1.25-.81,2.61-1.35,4.09l-1.91,5.23h-1L532.1,531c-.51-1.52-.93-2.9-1.23-4.18h0c0,1.34-.11,3.14-.21,4.76l-.29,4.63H529l.75-10.79h1.78l1.83,5.22c.45,1.32.81,2.51,1.09,3.64h0c.29-1.1.66-2.28,1.14-3.64l1.93-5.22h1.78L540,536.2h-1.37Z"/>< path="path" class="cls-9" d="M549.21,532.25a3.79,3.79,0,0,1-3.85,4.12,3.68,3.68,0,0,1-3.72-4,3.78,3.78,0,0,1,3.84-4.11A3.66,3.66,0,0,1,549.21,532.25Zm-6.14.09c0,1.7,1,3,2.35,3s2.36-1.26,2.36-3c0-1.31-.66-3-2.33-3S543.07,530.88,543.07,532.34Z"/>
        <path class="cls-9" d="M556.52,535.92a5.31,5.31,0,0,1-2.22.45,3.69,3.69,0,0,1-3.86-4,4,4,0,0,1,4.16-4.13,4.58,4.58,0,0,1,2,.42l-.32,1.08a3.33,3.33,0,0,0-1.64-.37,2.68,2.68,0,0,0-2.73,2.93,2.65,2.65,0,0,0,2.69,2.89,4.17,4.17,0,0,0,1.73-.37Z"/>
        <path class="cls-9" d="M558.17,524.83h1.4v4.84h0a2.77,2.77,0,0,1,1-1,2.87,2.87,0,0,1,1.44-.39c1,0,2.7.64,2.7,3.31v4.61h-1.4v-4.46c0-1.25-.47-2.29-1.79-2.29a2,2,0,0,0-1.9,1.4,2,2,0,0,0-.1.67v4.68h-1.4Z"/>
        <path class="cls-9" d="M568.63,526.27a.85.85,0,0,1-.9.87.84.84,0,0,1-.85-.87.88.88,0,1,1,1.75,0Zm-1.58,9.93v-7.74h1.4v7.74Z"/>
        <path
          class="cls-9"
          d="M570.6,534.77a3.86,3.86,0,0,0,1.86.55c1,0,1.51-.51,1.51-1.16s-.41-1-1.44-1.41c-1.4-.51-2.06-1.27-2.06-2.2a2.4,2.4,0,0,1,2.68-2.27,3.78,3.78,0,0,1,1.9.48l-.35,1a3,3,0,0,0-1.59-.45c-.83,0-1.28.47-1.28,1.06s.45.93,1.47,1.32c1.33.5,2,1.17,2,2.33,0,1.37-1.07,2.33-2.9,2.33a4.37,4.37,0,0,1-2.17-.54Z"/>
        <path class="cls-9" d="M336.67,262.82v4.52h5.21v-4.52h1.4v10.79h-1.4v-5.06h-5.21v5.06h-1.4V262.82Z"/>
        <path
          class="cls-9"
          d="M346.41,270a2.47,2.47,0,0,0,2.65,2.69,5.15,5.15,0,0,0,2.15-.4l.24,1a6.12,6.12,0,0,1-2.58.5,3.61,3.61,0,0,1-3.81-3.91c0-2.35,1.38-4.18,3.64-4.18,2.53,0,3.19,2.22,3.19,3.64a3.45,3.45,0,0,1-.05.66Zm4.12-1a2,2,0,0,0-1.94-2.28,2.31,2.31,0,0,0-2.16,2.28Z"/>
        <path class="cls-9" d="M353.64,268.28c0-.92,0-1.7-.07-2.41h1.24l.05,1.52h.05a2.36,2.36,0,0,1,2.16-1.7,1.61,1.61,0,0,1,.39,0v1.33A2.21,2.21,0,0,0,357,267a2,2,0,0,0-1.88,1.81,3.27,3.27,0,0,0-.06.65v4.14h-1.4Z"/>
        <path
          class="cls-9"
          d="M358.94,268c0-.81,0-1.45-.07-2.09h1.23l.07,1.24h0a2.68,2.68,0,0,1,2.44-1.42,2.27,2.27,0,0,1,2.18,1.55h0a3.1,3.1,0,0,1,.87-1,2.59,2.59,0,0,1,1.7-.55c1,0,2.56.67,2.56,3.36v4.56h-1.38v-4.38c0-1.5-.55-2.39-1.67-2.39a1.84,1.84,0,0,0-1.68,1.27,2.25,2.25,0,0,0-.11.71v4.79h-1.38V269c0-1.23-.54-2.12-1.61-2.12a1.93,1.93,0,0,0-1.75,1.41,2.22,2.22,0,0,0-.11.69v4.67h-1.37Z"/>
        <path class="cls-9" d="M379.29,269.66a3.79,3.79,0,0,1-3.85,4.12,3.68,3.68,0,0,1-3.72-4,3.78,3.78,0,0,1,3.84-4.11A3.66,3.66,0,0,1,379.29,269.66Zm-6.14.09c0,1.7,1,3,2.34,3s2.36-1.26,2.36-3c0-1.31-.66-3-2.33-3S373.15,268.29,373.15,269.75Z"/>
        <path
          class="cls-9"
          d="M380.87,272.17a3.75,3.75,0,0,0,1.86.56c1,0,1.51-.51,1.51-1.16s-.41-1-1.44-1.41c-1.4-.51-2.06-1.27-2.06-2.2a2.39,2.39,0,0,1,2.68-2.27,3.67,3.67,0,0,1,1.89.48l-.35,1a3,3,0,0,0-1.58-.45c-.84,0-1.29.47-1.29,1.06s.46.92,1.47,1.32c1.34.5,2,1.17,2,2.32,0,1.38-1.06,2.34-2.89,2.34a4.44,4.44,0,0,1-2.18-.54Z"/>
        <path class="cls-9" d="M389,263.68a.87.87,0,1,1-1.74,0,.86.86,0,0,1,.87-.88A.84.84,0,0,1,389,263.68Zm-1.57,9.93v-7.74h1.4v7.74Z"/>
        <path class="cls-9" d="M391.14,262.24h1.4v11.37h-1.4Z"/>
        <path class="cls-9" d="M394.92,262.24h1.4v11.37h-1.4Z"/>
        <path class="cls-9" d="M405.7,269.66a3.79,3.79,0,0,1-3.85,4.12,3.68,3.68,0,0,1-3.72-4,3.78,3.78,0,0,1,3.85-4.11A3.66,3.66,0,0,1,405.7,269.66Zm-6.14.09c0,1.7,1,3,2.35,3s2.36-1.26,2.36-3c0-1.31-.66-3-2.33-3S399.56,268.29,399.56,269.75Z"/>
        <path class="cls-9" d="M481.83,132.91l-1.11,3.39h-1.45l3.67-10.79h1.68l3.68,10.79h-1.49l-1.15-3.39Zm3.55-1.09-1.07-3.1c-.24-.71-.4-1.35-.56-2h0c-.15.63-.32,1.29-.53,1.95l-1.06,3.12Z"/>
        <path
          class="cls-9"
          d="M496.32,128.56c0,.55-.06,1.18-.06,2.12v4.49c0,1.8-.37,2.87-1.11,3.55a4.19,4.19,0,0,1-2.82.93,4.93,4.93,0,0,1-2.58-.64l.35-1.08a4.39,4.39,0,0,0,2.28.62c1.43,0,2.49-.76,2.49-2.72V135h0a2.74,2.74,0,0,1-2.46,1.31c-1.93,0-3.3-1.65-3.3-3.79,0-2.63,1.71-4.11,3.49-4.11a2.59,2.59,0,0,1,2.42,1.34h0l.06-1.16Zm-1.46,3.05a2,2,0,0,0-.08-.63,2,2,0,0,0-2-1.5c-1.34,0-2.3,1.13-2.3,2.93,0,1.52.78,2.79,2.29,2.79a2.07,2.07,0,0,0,2-1.45,2.67,2.67,0,0,0,.11-.75Z"/>
        <path class="cls-9" d="M505.06,134.18c0,.82,0,1.51.06,2.12h-1.24L503.8,135h0a2.88,2.88,0,0,1-2.56,1.44c-1.21,0-2.66-.68-2.66-3.4v-4.52h1.4v4.28c0,1.47.46,2.48,1.73,2.48a2,2,0,0,0,1.86-1.3,2.2,2.2,0,0,0,.13-.72v-4.74h1.4Z"/>
        <path
          class="cls-9"
          d="M511.69,136.3l-.12-1h0a2.88,2.88,0,0,1-2.37,1.16,2.21,2.21,0,0,1-2.37-2.22c0-1.88,1.67-2.91,4.66-2.89v-.16a1.6,1.6,0,0,0-1.77-1.79,3.76,3.76,0,0,0-2,.58l-.32-.94a4.9,4.9,0,0,1,2.55-.68c2.37,0,3,1.62,3,3.17v2.9a13.06,13.06,0,0,0,.11,1.85Zm-.22-4c-1.52,0-3.26.24-3.26,1.74a1.24,1.24,0,0,0,1.31,1.35,2,2,0,0,0,1.89-1.3,1.41,1.41,0,0,0,.06-.44Z"/>
        <path
          class="cls-9"
          d="M518.55,125.64a16.31,16.31,0,0,1,2.68-.21,4.41,4.41,0,0,1,3,.9,2.89,2.89,0,0,1,1,2.25,3.16,3.16,0,0,1-.84,2.31,4.45,4.45,0,0,1-3.3,1.19,4.25,4.25,0,0,1-1.12-.11v4.33h-1.39Zm1.39,5.2a4.27,4.27,0,0,0,1.15.12c1.69,0,2.71-.83,2.71-2.3s-1-2.13-2.54-2.13a6.88,6.88,0,0,0-1.32.11Z"/>
        <path class="cls-9" d="M526.76,131c0-.91,0-1.69-.07-2.41h1.24l.05,1.52h0a2.36,2.36,0,0,1,2.16-1.7,1.61,1.61,0,0,1,.39,0v1.33a2.33,2.33,0,0,0-.48,0,2,2,0,0,0-1.88,1.8,3.45,3.45,0,0,0-.06.66v4.13h-1.4Z"/>
        <path class="cls-9" d="M533.63,126.37a.86.86,0,0,1-.9.88.83.83,0,0,1-.84-.88.87.87,0,1,1,1.74,0Zm-1.57,9.93v-7.74h1.4v7.74Z"/>
        <path
          class="cls-9"
          d="M536.59,132.69a2.47,2.47,0,0,0,2.65,2.68,5.29,5.29,0,0,0,2.14-.39l.25,1a6.31,6.31,0,0,1-2.58.49,3.61,3.61,0,0,1-3.81-3.91c0-2.34,1.38-4.18,3.64-4.18,2.52,0,3.19,2.22,3.19,3.65a3.61,3.61,0,0,1-.05.66Zm4.12-1a2,2,0,0,0-1.94-2.28,2.31,2.31,0,0,0-2.16,2.28Z"/>
        <path class="cls-9" d="M545.51,126.33v2.23h2v1.07h-2v4.17c0,1,.27,1.51,1.06,1.51a3.12,3.12,0,0,0,.82-.1l.06,1.07a3.78,3.78,0,0,1-1.26.19,2,2,0,0,1-1.52-.6,3,3,0,0,1-.54-2v-4.22h-1.2v-1.07h1.2V126.7Z"/>
        <path
          class="cls-9"
          d="M553.4,136.3l-.12-1h0a2.88,2.88,0,0,1-2.37,1.16,2.21,2.21,0,0,1-2.36-2.22c0-1.88,1.66-2.91,4.65-2.89v-.16a1.6,1.6,0,0,0-1.76-1.79,3.79,3.79,0,0,0-2,.58l-.32-.94a4.9,4.9,0,0,1,2.55-.68c2.37,0,2.95,1.62,2.95,3.17v2.9a13.06,13.06,0,0,0,.11,1.85Zm-.21-4c-1.53,0-3.27.24-3.27,1.74a1.24,1.24,0,0,0,1.31,1.35,2,2,0,0,0,1.89-1.3,1.44,1.44,0,0,0,.07-.44Z"/>
        <path class="cls-9" d="M395.43,132V121.18H397l3.45,5.45a30.93,30.93,0,0,1,1.93,3.52l0,0c-.12-1.44-.15-2.76-.15-4.43v-4.52h1.31V132h-1.41l-3.43-5.47a36.66,36.66,0,0,1-2-3.61l-.05,0c.09,1.36.11,2.66.11,4.45V132Z"/>
        <path class="cls-9" d="M412.9,128a3.79,3.79,0,0,1-3.85,4.12,3.69,3.69,0,0,1-3.73-4,3.79,3.79,0,0,1,3.85-4.11A3.66,3.66,0,0,1,412.9,128Zm-6.14.09c0,1.7,1,3,2.34,3s2.36-1.26,2.36-3c0-1.31-.66-3-2.33-3S406.76,126.65,406.76,128.11Z"/>
        <path
          class="cls-9"
          d="M421.37,124.23c0,.54-.07,1.17-.07,2.12v4.49c0,1.79-.36,2.87-1.1,3.55a4.19,4.19,0,0,1-2.82.92,5.09,5.09,0,0,1-2.59-.63l.36-1.09a4.27,4.27,0,0,0,2.28.62c1.43,0,2.49-.75,2.49-2.71v-.86h0a2.75,2.75,0,0,1-2.46,1.3c-1.93,0-3.3-1.64-3.3-3.78,0-2.63,1.7-4.11,3.49-4.11a2.57,2.57,0,0,1,2.42,1.34h0l.06-1.16Zm-1.46,3a2.47,2.47,0,0,0-.08-.63,2,2,0,0,0-2-1.49c-1.34,0-2.31,1.13-2.31,2.93,0,1.51.79,2.79,2.3,2.79a2.05,2.05,0,0,0,2-1.45,2.4,2.4,0,0,0,.12-.75Z"/>
        <path
          class="cls-9"
          d="M427.92,132l-.12-1h0a2.87,2.87,0,0,1-2.37,1.15,2.2,2.2,0,0,1-2.36-2.22c0-1.87,1.66-2.9,4.65-2.88v-.16a1.6,1.6,0,0,0-1.76-1.79,3.71,3.71,0,0,0-2,.58l-.32-.94a4.9,4.9,0,0,1,2.55-.68c2.37,0,2.95,1.62,2.95,3.17v2.9a13.06,13.06,0,0,0,.11,1.85Zm-.21-3.95c-1.53,0-3.27.24-3.27,1.73a1.24,1.24,0,0,0,1.31,1.35,2,2,0,0,0,1.89-1.29,1.45,1.45,0,0,0,.07-.45Z"/>
        <path class="cls-9" d="M431.34,120.6h1.4V132h-1.4Z"/>
        <path
          class="cls-9"
          d="M435.91,128.35a2.47,2.47,0,0,0,2.65,2.69,5.1,5.1,0,0,0,2.14-.4l.25,1a6.12,6.12,0,0,1-2.58.5,3.61,3.61,0,0,1-3.81-3.91c0-2.35,1.38-4.18,3.64-4.18,2.52,0,3.19,2.22,3.19,3.64a3.45,3.45,0,0,1-.05.66Zm4.12-1a2,2,0,0,0-1.94-2.28,2.31,2.31,0,0,0-2.16,2.28Z"/>
        <path
          class="cls-9"
          d="M442.94,130.54a3.86,3.86,0,0,0,1.86.55c1,0,1.51-.51,1.51-1.16s-.41-1-1.44-1.41c-1.4-.51-2.06-1.27-2.06-2.2a2.4,2.4,0,0,1,2.68-2.27,3.68,3.68,0,0,1,1.9.48l-.35,1a3,3,0,0,0-1.59-.45c-.83,0-1.28.47-1.28,1.06s.45.92,1.47,1.32c1.33.5,2,1.17,2,2.32,0,1.38-1.07,2.34-2.9,2.34a4.37,4.37,0,0,1-2.17-.54Z"/>
        <path class="cls-9" d="M398.15,49.71h-3.29V48.54h8v1.17h-3.3v9.62h-1.4Z"/>
        <path class="cls-9" d="M409.75,57.21c0,.81,0,1.5.07,2.12h-1.25l-.07-1.27h0a2.89,2.89,0,0,1-2.56,1.44c-1.21,0-2.67-.68-2.67-3.39V51.58h1.4v4.28c0,1.48.46,2.48,1.73,2.48a2.05,2.05,0,0,0,1.87-1.29,2.26,2.26,0,0,0,.12-.72V51.58h1.4Z"/>
        <path class="cls-9" d="M417.62,59.05a5.39,5.39,0,0,1-2.22.44,3.69,3.69,0,0,1-3.87-4,3.94,3.94,0,0,1,4.16-4.13,4.59,4.59,0,0,1,2,.41l-.31,1.08a3.52,3.52,0,0,0-1.65-.37A2.69,2.69,0,0,0,413,55.46a2.66,2.66,0,0,0,2.7,2.9,4.15,4.15,0,0,0,1.72-.37Z"/>
        <path
          class="cls-9"
          d="M419.07,57.89a3.75,3.75,0,0,0,1.86.55c1,0,1.51-.5,1.51-1.15s-.41-1-1.44-1.42c-1.4-.5-2.06-1.26-2.06-2.19a2.39,2.39,0,0,1,2.68-2.27,3.64,3.64,0,0,1,1.89.48l-.35,1a3,3,0,0,0-1.58-.46c-.83,0-1.29.48-1.29,1.07s.46.92,1.47,1.32c1.34.49,2,1.17,2,2.32,0,1.37-1.07,2.33-2.9,2.33a4.44,4.44,0,0,1-2.18-.54Z"/>
        <path class="cls-9" d="M432.61,55.38a3.79,3.79,0,0,1-3.85,4.12,3.68,3.68,0,0,1-3.72-4,3.77,3.77,0,0,1,3.84-4.1A3.66,3.66,0,0,1,432.61,55.38Zm-6.14.09c0,1.7,1,3,2.35,3s2.36-1.26,2.36-3c0-1.31-.67-3-2.34-3S426.47,54,426.47,55.47Z"/>
        <path class="cls-9" d="M434.39,53.68c0-.81,0-1.45-.07-2.1h1.24l.08,1.28h0a2.85,2.85,0,0,1,2.56-1.45c1.06,0,2.73.64,2.73,3.3v4.62h-1.4V54.86c0-1.25-.47-2.3-1.79-2.3a2,2,0,0,0-1.9,1.45,2.13,2.13,0,0,0-.09.65v4.67h-1.4Z"/></g>
      <g id="Constalation">
        <path
          class="cls-10"
          d="M1974.55,1443l-29-15-74.5-13.5-20.5-11.5-156-38-34,2s-62.26,17.68-147-15c-70-27-78.5-99.5-78.5-99.5h0l-334-39h0l-240-291h0L718.55,785l-24-35-37-17L596.9,629.65a113.25,113.25,0,0,0-26.22-30.54L490.55,534l3-24-3-25-26-33-90-172,41-21,42-24,16-108-31.61-26.1L385.55,121l2-65"/></g>
      <g id="Points"><circle class="cls-11" cx="1971.8" cy="1437.76" r="5.75"/>
        <circle class="cls-11" cx="1870.8" cy="1413.76" r="5.75"/>
        <circle class="cls-11" cx="1659.8" cy="1362.76" r="5.75"/>
        <circle class="cls-11" cx="1659.8" cy="1362.76" r="5.75"/>
        <circle class="cls-11" cx="1435.8" cy="1249.76" r="5.75"/>
        <circle class="cls-11" cx="1101.8" cy="1210.76" r="5.75"/>
        <circle class="cls-11" cx="861.09" cy="922.84" r="5.75"/>
        <circle class="cls-11" cx="659.17" cy="733.42" r="5.75"/>
        <circle class="cls-11" cx="491.89" cy="534.8" r="5.75"/>
        <circle class="cls-11" cx="375.58" cy="280.96" r="5.75"/>
        <circle class="cls-11" cx="471.54" cy="125.55" r="5.75"/>
        <circle class="cls-11" cx="386.69" cy="54.28" r="5.75"/>
        <circle class="cls-11" cx="386.54" cy="120.55" r="5.75"/>
      </g>
    </g>
  </g>
</svg>
